[img]http://www.leetleech.org/images/87736814272273254644.jpg[/img]

The Change Up 2011 CAM XViD


Director: David Dobkin
Writers: Jon Lucas, Scott Moore
Stars: Jason Bateman, Ryan Reynolds and Olivia Wilde

Plot:
A comedy in which a married father accidentally switches bodies with his best friend, leading to a series of wildly complex difficulties.

IMDB: http://www.imdb.com/title/tt1488555/


Format : AVI
Format/Info : Audio Video Interleave
File size : 962 MiB
Duration : 1h 46mn
Overall bit rate : 1 258 Kbps
Writing library : VirtualDub build 32842/release

Video
ID : 0
Format : MPEG-4 Visual
Format profile : Advanced Simple@L5
Format settings, BVOP : 2
Format settings, QPel : No
Format settings, GMC : No warppoints
Format settings, Matrix : Default (H.263)
Muxing mode : Packed bitstream
Codec ID : XVID
Codec ID/Hint : XviD
Duration : 1h 46mn
Bit rate : 1 118 Kbps
Width : 642 pixels
Height : 304 pixels
Display aspect ratio : 2.2:1
Frame rate : 29.000 fps
Color space : YUV
Chroma subsampling : 4:2:0
Bit depth : 8 bits
Scan type : Progressive
Compression mode : Lossy
Bits/(Pixel*Frame) : 0.198
Stream size : 855 MiB (89%)
Writing library : XviD 64

Audio
ID : 1
Format : MPEG Audio
Format version : Version 1
Format profile : Layer 3
Codec ID : 55
Codec ID/Hint : MP3
Duration : 1h 46mn
Bit rate mode : Constant
Bit rate : 128 Kbps
Channel(s) : 2 channels
Sampling rate : 48.0 KHz
Compression mode : Lossy
Stream size : 97.9 MiB (10%)
Alignment : Split accross interleaves
Interleave, duration : 34 ms (1.00 video frame)
Interleave, preload duration : 500 ms


Screens:

[img]http://www.leetleech.org/images/55138750578766414728.png[/img]
[img]http://www.leetleech.org/images/56641105783419975043.png[/img]
[img]http://www.leetleech.org/images/75359403756807624059.png[/img]
[img]http://www.leetleech.org/images/44801500037677142036.png[/img]
